<svg width="216" height="44" viewBox="0 0 216 44" fill="none"
    xmlns="http://www.w3.org/2000/svg">
    <path d="M5 20.0002C2.23858 20.0002 0 17.7617 0 15.0002V5.00024C0 2.23882 2.23858 0.000244141 5 0.000244141H15C17.7614 0.000244141 20 2.23882 20 5.00024V15.0002C20 17.7617 17.7614 20.0002 15 20.0002H5Z" fill="#F7F8F8"/>
    <path d="M29 20.0002C26.2386 20.0002 24 17.7617 24 15.0002V5.00024C24 2.23882 26.2386 0.000244141 29 0.000244141H39C41.7614 0.000244141 44 2.23882 44 5.00024V15.0002C44 17.7617 41.7614 20.0002 39 20.0002H29Z" fill="#F7F8F8"/>
    <path d="M5 44.0002C2.23858 44.0002 0 41.7617 0 39.0002V29.0002C0 26.2388 2.23858 24.0002 5 24.0002H15C17.7614 24.0002 20 26.2388 20 29.0002V39.0002C20 41.7617 17.7614 44.0002 15 44.0002H5Z" fill="#F7F8F8"/>
    <path d="M76.5925 18.6565C76.5925 20.0107 76.2644 21.1877 75.6081 22.1877C74.9519 23.1877 73.9935 23.9586 72.7331 24.5002C71.4831 25.0419 69.9623 25.3127 68.1706 25.3127C67.379 25.3127 66.6029 25.2607 65.8425 25.1565C65.0925 25.0523 64.3685 24.9013 63.6706 24.7034C62.9831 24.495 62.3269 24.2398 61.7019 23.9377V19.4377C62.7852 19.9169 63.9102 20.3492 65.0769 20.7346C66.2435 21.12 67.3998 21.3127 68.5456 21.3127C69.3373 21.3127 69.9727 21.2086 70.4519 21.0002C70.9415 20.7919 71.2956 20.5055 71.5144 20.1409C71.7331 19.7763 71.8425 19.3596 71.8425 18.8909C71.8425 18.318 71.6498 17.8284 71.2644 17.4221C70.879 17.0159 70.3477 16.6357 69.6706 16.2815C69.004 15.9273 68.2487 15.5471 67.405 15.1409C66.8737 14.8909 66.2956 14.5888 65.6706 14.2346C65.0456 13.87 64.4519 13.4273 63.8894 12.9065C63.3269 12.3857 62.8633 11.7555 62.4987 11.0159C62.1446 10.2659 61.9675 9.37004 61.9675 8.32837C61.9675 6.96379 62.28 5.79712 62.905 4.82837C63.53 3.85962 64.4206 3.12004 65.5769 2.60962C66.7435 2.08879 68.1185 1.82837 69.7019 1.82837C70.8894 1.82837 72.0196 1.96899 73.0925 2.25024C74.1758 2.52108 75.306 2.91691 76.4831 3.43774L74.9206 7.20337C73.8685 6.77629 72.9258 6.44816 72.0925 6.21899C71.2592 5.97941 70.4102 5.85962 69.5456 5.85962C68.9415 5.85962 68.4258 5.95858 67.9987 6.15649C67.5717 6.34399 67.2487 6.61483 67.03 6.96899C66.8112 7.31274 66.7019 7.71379 66.7019 8.17212C66.7019 8.71379 66.8581 9.17212 67.1706 9.54712C67.4935 9.9117 67.9727 10.2659 68.6081 10.6096C69.254 10.9534 70.056 11.3544 71.0144 11.8127C72.181 12.3648 73.1758 12.943 73.9987 13.5471C74.8321 14.1409 75.4727 14.844 75.9206 15.6565C76.3685 16.4586 76.5925 17.4586 76.5925 18.6565ZM87.3975 21.5159C87.9183 21.5159 88.4235 21.4638 88.9131 21.3596C89.4131 21.2555 89.9079 21.1252 90.3975 20.969V24.5159C89.8871 24.745 89.2517 24.9325 88.4912 25.0784C87.7412 25.2346 86.9183 25.3127 86.0225 25.3127C84.9808 25.3127 84.0433 25.1461 83.21 24.8127C82.3871 24.469 81.736 23.8805 81.2569 23.0471C80.7881 22.2034 80.5537 21.0315 80.5537 19.5315V11.1096H78.2725V9.09399L80.8975 7.50024L82.2725 3.81274H85.3194V7.53149H90.21V11.1096H85.3194V19.5315C85.3194 20.1982 85.5069 20.6982 85.8819 21.0315C86.2673 21.3544 86.7725 21.5159 87.3975 21.5159ZM109.499 16.2346C109.499 17.693 109.301 18.9846 108.906 20.1096C108.52 21.2346 107.952 22.1877 107.202 22.969C106.463 23.7398 105.567 24.3232 104.515 24.719C103.473 25.1148 102.296 25.3127 100.984 25.3127C99.7546 25.3127 98.6244 25.1148 97.5931 24.719C96.5723 24.3232 95.6817 23.7398 94.9212 22.969C94.1712 22.1877 93.5879 21.2346 93.1712 20.1096C92.765 18.9846 92.5619 17.693 92.5619 16.2346C92.5619 14.2971 92.9056 12.6565 93.5931 11.3127C94.2806 9.96899 95.2598 8.94816 96.5306 8.25024C97.8015 7.55233 99.3171 7.20337 101.077 7.20337C102.713 7.20337 104.161 7.55233 105.421 8.25024C106.692 8.94816 107.687 9.96899 108.406 11.3127C109.135 12.6565 109.499 14.2971 109.499 16.2346ZM97.4212 16.2346C97.4212 17.3805 97.5462 18.344 97.7962 19.1252C98.0462 19.9065 98.4369 20.495 98.9681 20.8909C99.4994 21.2867 100.192 21.4846 101.046 21.4846C101.89 21.4846 102.572 21.2867 103.093 20.8909C103.624 20.495 104.01 19.9065 104.249 19.1252C104.499 18.344 104.624 17.3805 104.624 16.2346C104.624 15.0784 104.499 14.12 104.249 13.3596C104.01 12.5888 103.624 12.0107 103.093 11.6252C102.562 11.2398 101.869 11.0471 101.015 11.0471C99.7546 11.0471 98.8379 11.4794 98.265 12.344C97.7025 13.2086 97.4212 14.5055 97.4212 16.2346ZM123.039 7.20337C124.903 7.20337 126.403 7.71379 127.539 8.73462C128.674 9.74504 129.242 11.37 129.242 13.6096V25.0002H124.476V14.7971C124.476 13.5471 124.247 12.6044 123.789 11.969C123.341 11.3336 122.632 11.0159 121.664 11.0159C120.205 11.0159 119.211 11.5107 118.679 12.5002C118.148 13.4898 117.882 14.9169 117.882 16.7815V25.0002H113.117V7.53149H116.757L117.398 9.76587H117.664C118.039 9.1617 118.502 8.67212 119.054 8.29712C119.617 7.92212 120.237 7.64608 120.914 7.46899C121.601 7.29191 122.31 7.20337 123.039 7.20337ZM141.031 7.20337C142.646 7.20337 144.036 7.51587 145.203 8.14087C146.37 8.75545 147.271 9.65129 147.906 10.8284C148.542 12.0055 148.859 13.443 148.859 15.1409V17.4534H137.594C137.646 18.7971 138.047 19.8544 138.797 20.6252C139.557 21.3857 140.609 21.7659 141.953 21.7659C143.068 21.7659 144.089 21.6513 145.016 21.4221C145.943 21.193 146.896 20.8492 147.875 20.3909V24.0784C147.01 24.5055 146.104 24.818 145.156 25.0159C144.219 25.2138 143.078 25.3127 141.734 25.3127C139.984 25.3127 138.432 24.9898 137.078 24.344C135.734 23.6982 134.677 22.7138 133.906 21.3909C133.146 20.068 132.766 18.4013 132.766 16.3909C132.766 14.3492 133.109 12.6513 133.797 11.2971C134.495 9.93254 135.464 8.9117 136.703 8.23462C137.943 7.54712 139.385 7.20337 141.031 7.20337ZM141.062 10.594C140.135 10.594 139.365 10.8909 138.75 11.4846C138.146 12.0784 137.797 13.0107 137.703 14.2815H144.391C144.38 13.5732 144.25 12.943 144 12.3909C143.76 11.8388 143.396 11.4013 142.906 11.0784C142.427 10.7555 141.812 10.594 141.062 10.594ZM160.086 2.15649C163.034 2.15649 165.185 2.79191 166.539 4.06274C167.894 5.32316 168.571 7.06274 168.571 9.28149C168.571 10.2815 168.42 11.2398 168.118 12.1565C167.815 13.0627 167.321 13.87 166.633 14.5784C165.956 15.2867 165.05 15.8492 163.914 16.2659C162.779 16.6721 161.378 16.8752 159.711 16.8752H157.633V25.0002H152.789V2.15649H160.086ZM159.836 6.12524H157.633V12.9065H159.227C160.133 12.9065 160.92 12.7867 161.586 12.5471C162.253 12.3075 162.769 11.9325 163.133 11.4221C163.498 10.9117 163.68 10.2555 163.68 9.45337C163.68 8.32837 163.368 7.49504 162.743 6.95337C162.118 6.40129 161.149 6.12524 159.836 6.12524ZM176.954 25.0002H172.188V0.687744H176.954V25.0002ZM197.681 7.53149V25.0002H194.024L193.384 22.7659H193.134C192.759 23.3596 192.29 23.844 191.728 24.219C191.165 24.594 190.545 24.87 189.868 25.0471C189.191 25.2242 188.488 25.3127 187.759 25.3127C186.509 25.3127 185.42 25.094 184.493 24.6565C183.566 24.2086 182.842 23.5159 182.321 22.5784C181.811 21.6409 181.556 20.4221 181.556 18.9221V7.53149H186.321V17.7346C186.321 18.9846 186.545 19.9273 186.993 20.5627C187.441 21.1982 188.155 21.5159 189.134 21.5159C190.103 21.5159 190.863 21.2971 191.415 20.8596C191.967 20.4117 192.353 19.7607 192.571 18.9065C192.8 18.0419 192.915 16.9898 192.915 15.7502V7.53149H197.681ZM214.548 19.8127C214.548 21.0002 214.267 22.0055 213.704 22.8284C213.152 23.6409 212.324 24.2607 211.22 24.6877C210.116 25.1044 208.741 25.3127 207.095 25.3127C205.876 25.3127 204.829 25.2346 203.954 25.0784C203.09 24.9221 202.215 24.6617 201.329 24.2971V20.3596C202.277 20.7867 203.293 21.1409 204.376 21.4221C205.47 21.693 206.428 21.8284 207.251 21.8284C208.178 21.8284 208.84 21.693 209.236 21.4221C209.642 21.1409 209.845 20.7763 209.845 20.3284C209.845 20.0367 209.762 19.7763 209.595 19.5471C209.439 19.3075 209.095 19.0419 208.564 18.7502C208.033 18.4482 207.199 18.0575 206.064 17.5784C204.97 17.12 204.069 16.6565 203.361 16.1877C202.663 15.719 202.142 15.1669 201.798 14.5315C201.465 13.8857 201.298 13.068 201.298 12.0784C201.298 10.4638 201.923 9.25024 203.173 8.43774C204.434 7.61483 206.116 7.20337 208.22 7.20337C209.303 7.20337 210.335 7.31274 211.314 7.53149C212.303 7.75024 213.319 8.0992 214.361 8.57837L212.923 12.0159C212.059 11.6409 211.241 11.3336 210.47 11.094C209.71 10.8544 208.934 10.7346 208.142 10.7346C207.444 10.7346 206.918 10.8284 206.564 11.0159C206.21 11.2034 206.033 11.4898 206.033 11.8752C206.033 12.1565 206.121 12.4065 206.298 12.6252C206.486 12.844 206.84 13.0888 207.361 13.3596C207.892 13.62 208.668 13.9586 209.689 14.3752C210.678 14.7815 211.538 15.2086 212.267 15.6565C212.996 16.094 213.559 16.6409 213.954 17.2971C214.35 17.943 214.548 18.7815 214.548 19.8127Z" fill="#F7F8F8"/>
    <path d="M63 37.5002H75" stroke="#F7F8F8" stroke-width="2" stroke-linecap="round"/>
    <path d="M88.2033 34.8225C87.8556 34.8225 87.547 34.8909 87.2775 35.0276C87.0119 35.1604 86.7873 35.3538 86.6037 35.6077C86.424 35.8616 86.2873 36.1682 86.1935 36.5276C86.0998 36.887 86.0529 37.2913 86.0529 37.7405C86.0529 38.3459 86.1271 38.8635 86.2755 39.2932C86.4279 39.719 86.6623 40.0452 86.9787 40.2717C87.2951 40.4944 87.7033 40.6057 88.2033 40.6057C88.5509 40.6057 88.8986 40.5667 89.2463 40.4885C89.5978 40.4104 89.9787 40.2991 90.3888 40.1545V41.678C90.0099 41.8342 89.6369 41.9456 89.2697 42.012C88.9025 42.0823 88.4904 42.1174 88.0334 42.1174C87.1505 42.1174 86.424 41.9358 85.8537 41.5725C85.2873 41.2053 84.8673 40.6936 84.5939 40.0374C84.3205 39.3772 84.1838 38.6077 84.1838 37.7288C84.1838 37.0803 84.2716 36.4866 84.4474 35.9475C84.6232 35.4084 84.881 34.9417 85.2209 34.5471C85.5607 34.1526 85.9806 33.8479 86.4806 33.6331C86.9806 33.4182 87.5548 33.3108 88.2033 33.3108C88.6291 33.3108 89.0548 33.3655 89.4806 33.4749C89.9103 33.5803 90.3205 33.7268 90.7111 33.9143L90.1252 35.3909C89.8048 35.2385 89.4826 35.1057 89.1584 34.9924C88.8341 34.8792 88.5158 34.8225 88.2033 34.8225ZM99.8723 37.7053C99.8723 38.3655 99.7903 38.967 99.6263 39.51C99.4622 40.0491 99.2122 40.5139 98.8763 40.9045C98.5442 41.2952 98.1223 41.5959 97.6106 41.8069C97.0989 42.0139 96.4934 42.1174 95.7942 42.1174C95.095 42.1174 94.4895 42.0139 93.9778 41.8069C93.4661 41.5959 93.0423 41.2952 92.7063 40.9045C92.3743 40.5139 92.1263 40.0471 91.9622 39.5042C91.7981 38.9612 91.7161 38.3577 91.7161 37.6936C91.7161 36.8069 91.8606 36.0354 92.1497 35.3792C92.4427 34.719 92.8919 34.2073 93.4973 33.844C94.1028 33.4807 94.8723 33.2991 95.8059 33.2991C96.7356 33.2991 97.4993 33.4807 98.097 33.844C98.6985 34.2073 99.1438 34.719 99.4329 35.3792C99.7259 36.0393 99.8723 36.8147 99.8723 37.7053ZM93.6204 37.7053C93.6204 38.303 93.6946 38.8186 93.843 39.2522C93.9954 39.6819 94.2317 40.0139 94.552 40.2483C94.8723 40.4788 95.2864 40.594 95.7942 40.594C96.3098 40.594 96.7278 40.4788 97.0481 40.2483C97.3684 40.0139 97.6009 39.6819 97.7454 39.2522C97.8938 38.8186 97.968 38.303 97.968 37.7053C97.968 36.8069 97.8001 36.0999 97.4641 35.5842C97.1282 35.0686 96.5755 34.8108 95.8059 34.8108C95.2942 34.8108 94.8763 34.928 94.552 35.1624C94.2317 35.3928 93.9954 35.7249 93.843 36.1584C93.6946 36.5881 93.6204 37.1038 93.6204 37.7053ZM109.127 42.0002H106.819L103.092 35.5198H103.039C103.055 35.7893 103.069 36.0608 103.08 36.3342C103.092 36.6077 103.104 36.8811 103.116 37.1545C103.127 37.4241 103.139 37.6956 103.151 37.969V42.0002H101.528V33.4338H103.819L107.539 39.8499H107.58C107.573 39.5842 107.563 39.3206 107.551 39.0588C107.539 38.7971 107.528 38.5354 107.516 38.2737C107.508 38.012 107.5 37.7502 107.493 37.4885V33.4338H109.127V42.0002ZM114.808 34.8225C114.46 34.8225 114.152 34.8909 113.882 35.0276C113.617 35.1604 113.392 35.3538 113.209 35.6077C113.029 35.8616 112.892 36.1682 112.798 36.5276C112.705 36.887 112.658 37.2913 112.658 37.7405C112.658 38.3459 112.732 38.8635 112.88 39.2932C113.033 39.719 113.267 40.0452 113.584 40.2717C113.9 40.4944 114.308 40.6057 114.808 40.6057C115.156 40.6057 115.503 40.5667 115.851 40.4885C116.203 40.4104 116.584 40.2991 116.994 40.1545V41.678C116.615 41.8342 116.242 41.9456 115.875 42.012C115.507 42.0823 115.095 42.1174 114.638 42.1174C113.755 42.1174 113.029 41.9358 112.459 41.5725C111.892 41.2053 111.472 40.6936 111.199 40.0374C110.925 39.3772 110.789 38.6077 110.789 37.7288C110.789 37.0803 110.876 36.4866 111.052 35.9475C111.228 35.4084 111.486 34.9417 111.826 34.5471C112.166 34.1526 112.585 33.8479 113.085 33.6331C113.585 33.4182 114.16 33.3108 114.808 33.3108C115.234 33.3108 115.66 33.3655 116.085 33.4749C116.515 33.5803 116.925 33.7268 117.316 33.9143L116.73 35.3909C116.41 35.2385 116.087 35.1057 115.763 34.9924C115.439 34.8792 115.121 34.8225 114.808 34.8225ZM121.198 33.4338C121.975 33.4338 122.616 33.5276 123.12 33.7151C123.628 33.9026 124.005 34.1858 124.251 34.5647C124.497 34.9436 124.62 35.4221 124.62 36.0002C124.62 36.3909 124.546 36.7327 124.397 37.0256C124.249 37.3186 124.053 37.5667 123.811 37.7698C123.569 37.9729 123.307 38.1389 123.026 38.2678L125.546 42.0002H123.53L121.485 38.7131H120.518V42.0002H118.702V33.4338H121.198ZM121.069 34.9221H120.518V37.2366H121.104C121.706 37.2366 122.135 37.137 122.393 36.9377C122.655 36.7346 122.786 36.4377 122.786 36.0471C122.786 35.6409 122.645 35.3518 122.364 35.1799C122.087 35.0081 121.655 34.9221 121.069 34.9221ZM131.437 42.0002H126.504V33.4338H131.437V34.9221H128.32V36.803H131.22V38.2913H128.32V40.5002H131.437V42.0002ZM136.415 42.0002H134.599V34.9456H132.272V33.4338H138.741V34.9456H136.415V42.0002ZM144.873 42.0002H139.939V33.4338H144.873V34.9221H141.756V36.803H144.656V38.2913H141.756V40.5002H144.873V42.0002ZM156.651 37.635C156.651 38.5999 156.465 39.4065 156.094 40.0549C155.727 40.6995 155.194 41.1858 154.494 41.5139C153.795 41.8381 152.953 42.0002 151.969 42.0002H149.543V33.4338H152.233C153.131 33.4338 153.91 33.594 154.571 33.9143C155.231 34.2307 155.742 34.7014 156.106 35.3264C156.469 35.9475 156.651 36.717 156.651 37.635ZM154.764 37.6819C154.764 37.0491 154.67 36.5295 154.483 36.1233C154.299 35.7131 154.026 35.4104 153.662 35.2151C153.303 35.0198 152.858 34.9221 152.326 34.9221H151.36V40.5002H152.139C153.026 40.5002 153.684 40.2639 154.114 39.7913C154.547 39.3186 154.764 38.6155 154.764 37.6819ZM163.24 42.0002H158.306V33.4338H163.24V34.9221H160.122V36.803H163.023V38.2913H160.122V40.5002H163.24V42.0002ZM169.969 39.6213C169.969 40.1292 169.846 40.5706 169.6 40.9456C169.354 41.3206 168.995 41.6096 168.522 41.8127C168.053 42.0159 167.483 42.1174 166.811 42.1174C166.514 42.1174 166.223 42.0979 165.938 42.0588C165.657 42.0198 165.385 41.9631 165.124 41.8889C164.866 41.8108 164.62 41.7151 164.385 41.6018V39.9143C164.791 40.094 165.213 40.2561 165.651 40.4006C166.088 40.5452 166.522 40.6174 166.952 40.6174C167.249 40.6174 167.487 40.5784 167.666 40.5002C167.85 40.4221 167.983 40.3147 168.065 40.178C168.147 40.0413 168.188 39.885 168.188 39.7092C168.188 39.4944 168.116 39.3108 167.971 39.1584C167.827 39.0061 167.627 38.8635 167.374 38.7307C167.124 38.5979 166.84 38.4553 166.524 38.303C166.325 38.2092 166.108 38.0959 165.874 37.9631C165.639 37.8264 165.416 37.6604 165.206 37.4651C164.995 37.2698 164.821 37.0334 164.684 36.7561C164.551 36.4749 164.485 36.1389 164.485 35.7483C164.485 35.2366 164.602 34.7991 164.836 34.4358C165.071 34.0725 165.405 33.7952 165.838 33.6038C166.276 33.4084 166.791 33.3108 167.385 33.3108C167.831 33.3108 168.254 33.3635 168.657 33.469C169.063 33.5706 169.487 33.719 169.928 33.9143L169.342 35.3264C168.948 35.1663 168.594 35.0432 168.282 34.9573C167.969 34.8674 167.651 34.8225 167.327 34.8225C167.1 34.8225 166.907 34.8596 166.747 34.9338C166.586 35.0042 166.465 35.1057 166.383 35.2385C166.301 35.3674 166.26 35.5178 166.26 35.6897C166.26 35.8928 166.319 36.0647 166.436 36.2053C166.557 36.342 166.737 36.4749 166.975 36.6038C167.217 36.7327 167.518 36.8831 167.877 37.0549C168.315 37.262 168.688 37.4788 168.997 37.7053C169.309 37.928 169.549 38.1917 169.717 38.4963C169.885 38.7971 169.969 39.1721 169.969 39.6213ZM171.402 42.0002V33.4338H173.218V42.0002H171.402ZM178.507 37.1897H181.905V41.6311C181.456 41.7795 180.989 41.8987 180.505 41.9885C180.02 42.0745 179.471 42.1174 178.858 42.1174C178.007 42.1174 177.284 41.9495 176.69 41.6135C176.096 41.2776 175.645 40.7815 175.337 40.1252C175.028 39.469 174.874 38.6624 174.874 37.7053C174.874 36.8069 175.046 36.0295 175.389 35.3733C175.737 34.717 176.243 34.2092 176.907 33.8499C177.575 33.4905 178.389 33.3108 179.35 33.3108C179.803 33.3108 180.251 33.3596 180.692 33.4573C181.134 33.5549 181.534 33.6819 181.893 33.8381L181.29 35.2913C181.028 35.1584 180.729 35.0471 180.393 34.9573C180.057 34.8674 179.706 34.8225 179.339 34.8225C178.811 34.8225 178.352 34.9436 177.962 35.1858C177.575 35.428 177.274 35.7678 177.059 36.2053C176.848 36.6389 176.743 37.1506 176.743 37.7405C176.743 38.2991 176.819 38.7952 176.971 39.2288C177.124 39.6584 177.364 39.9963 177.692 40.2424C178.02 40.4846 178.448 40.6057 178.975 40.6057C179.233 40.6057 179.45 40.594 179.626 40.5706C179.805 40.5432 179.973 40.5159 180.13 40.4885V38.7014H178.507V37.1897ZM191.43 42.0002H189.121L185.394 35.5198H185.342C185.357 35.7893 185.371 36.0608 185.383 36.3342C185.394 36.6077 185.406 36.8811 185.418 37.1545C185.43 37.4241 185.441 37.6956 185.453 37.969V42.0002H183.83V33.4338H186.121L189.842 39.8499H189.883C189.875 39.5842 189.865 39.3206 189.853 39.0588C189.842 38.7971 189.83 38.5354 189.818 38.2737C189.81 38.012 189.803 37.7502 189.795 37.4885V33.4338H191.43V42.0002Z" fill="#F7F8F8"/>
    <path d="M201 37.5002H213" stroke="#F7F8F8" stroke-width="2" stroke-linecap="round"/>
</svg>
