<svg width="58" height="46" viewBox="0 0 58 46" fill="none" xmlns="http://www.w3.org/2000/svg">
<path d="M21.249 45.1328H0.667969V30.4111C0.667969 24.4541 1.18066 19.7666 2.20605 16.3486C3.28027 12.8818 5.2334 9.78125 8.06543 7.04688C10.8975 4.3125 14.5107 2.16406 18.9053 0.601562L22.9336 9.09766C18.832 10.4648 15.8779 12.3691 14.0713 14.8105C12.3135 17.252 11.3857 20.499 11.2881 24.5518H21.249V45.1328ZM55.5996 45.1328H35.0186V30.4111C35.0186 24.4053 35.5312 19.6934 36.5566 16.2754C37.6309 12.8574 39.584 9.78125 42.416 7.04688C45.2969 4.3125 48.9102 2.16406 53.2559 0.601562L57.2842 9.09766C53.1826 10.4648 50.2285 12.3691 48.4219 14.8105C46.6641 17.252 45.7363 20.499 45.6387 24.5518H55.5996V45.1328Z" fill="#454B58"/>
</svg>
