<svg width="28" height="28" viewBox="0 0 28 28" fill="none" xmlns="http://www.w3.org/2000/svg">
<path d="M3 12.6316C1.34315 12.6316 0 11.2884 0 9.63157V3C0 1.34315 1.34315 0 3 0H9.63157C11.2884 0 12.6316 1.34315 12.6316 3V9.63157C12.6316 11.2884 11.2884 12.6316 9.63158 12.6316H3Z" fill="#F7F8F8"/>
<path d="M18.3685 12.6316C16.7116 12.6316 15.3685 11.2884 15.3685 9.63157V3C15.3685 1.34315 16.7116 0 18.3685 0H25C26.6569 0 28 1.34315 28 3V9.63157C28 11.2884 26.6569 12.6316 25 12.6316H18.3685Z" fill="#F7F8F8"/>
<path d="M3 28C1.34315 28 0 26.6568 0 25V18.3684C0 16.7116 1.34315 15.3684 3 15.3684H9.63157C11.2884 15.3684 12.6316 16.7116 12.6316 18.3684V25C12.6316 26.6568 11.2884 28 9.63158 28H3Z" fill="#F7F8F8"/>
</svg>
